<?xml version="1.0" encoding="UTF-8"?>
<svg version="1.1" xmlns="http://www.w3.org/2000/svg" width="96" height="96">
<path d="M0 0 C7.7911293 3.9340258 12.50597918 8.88754383 15.48828125 17.1171875 C16.5472996 21.38875872 16.70091882 25.63961688 16.90625 30.0234375 C17.24303002 33.51285275 18.51722571 35.8874339 20.1875 38.9375 C20.83264015 44.63623797 19.76646699 49.83687641 17.1875 54.9375 C14.61259079 57.9063844 11.94413598 59.68528801 8.1875 60.9375 C5.17468596 67.18629949 3.70152307 75.29708081 5.85546875 82.0234375 C5.96503906 82.65507813 6.07460937 83.28671875 6.1875 83.9375 C3.75 86.6875 3.75 86.6875 1.1875 88.9375 C-1.8125 87.9375 -1.8125 87.9375 -3.4375 85.25 C-4.75686003 82.07154174 -5.31087861 79.32107824 -5.8125 75.9375 C-6.53953125 76.35902344 -7.2665625 76.78054687 -8.015625 77.21484375 C-14.62723323 80.8173226 -19.6740702 82.40910239 -27.17578125 82.6640625 C-31.034856 83.06426284 -32.85356527 84.50965612 -35.8125 86.9375 C-38.56328884 87.85442961 -40.17198913 88.04636083 -43 88 C-44.258125 87.979375 -45.51625 87.95875 -46.8125 87.9375 C-46.8125 84.9675 -46.8125 81.9975 -46.8125 78.9375 C-43.3475 77.9475 -43.3475 77.9475 -39.8125 76.9375 C-39.8125 74.39888685 -40.60112303 73.68061158 -42.0625 71.625 C-50.75634159 57.65540839 -50.945775 39.92334471 -47.67895508 24.1315918 C-45.09291497 13.57289153 -41.26734307 5.7294855 -31.86328125 -0.00390625 C-23.15191908 -4.50062844 -8.88534459 -3.44787545 0 0 Z M-35.8125 22.9375 C-37.05880438 25.22518317 -37.05880438 25.22518317 -38 27.9375 C-38.51626953 29.29875 -38.51626953 29.29875 -39.04296875 30.6875 C-39.86643505 32.69887228 -39.86643505 32.69887228 -39.8125 33.9375 C-37.5025 33.9375 -35.1925 33.9375 -32.8125 33.9375 C-32.8125 36.5775 -32.8125 39.2175 -32.8125 41.9375 C-35.1225 41.9375 -37.4325 41.9375 -39.8125 41.9375 C-40.0483396 47.71557024 -39.68033046 52.45074804 -37.8125 57.9375 C-37.4825 57.2775 -37.1525 56.6175 -36.8125 55.9375 C-32.47604708 54.49201569 -28.33917065 54.26607995 -23.8125 54.9375 C-20.75 57.375 -20.75 57.375 -18.8125 59.9375 C-18.3175 60.4325 -18.3175 60.4325 -17.8125 60.9375 C-17.77186168 62.60367115 -17.769779 64.27138095 -17.8125 65.9375 C-18.410625 65.4425 -19.00875 64.9475 -19.625 64.4375 C-24.21874464 62.27573782 -28.80224906 62.31626116 -33.8125 62.9375 C-34.4725 63.5975 -35.1325 64.2575 -35.8125 64.9375 C-34.85828192 66.08676266 -33.89897955 67.23180541 -32.9375 68.375 C-32.40382813 69.01308594 -31.87015625 69.65117188 -31.3203125 70.30859375 C-29.07682085 72.73226219 -27.83016124 72.93483415 -24.5 73.4375 C-17.26016618 73.33161578 -9.75298806 68.94031054 -4.78515625 63.8671875 C-3.34610931 61.94113485 -2.05650722 59.99356749 -0.8125 57.9375 C2.64044944 53.12429775 2.64044944 53.12429775 5.75 52.0625 C8.54309733 51.06103384 8.54309733 51.06103384 10.0625 47.625 C11.1595493 44.02911618 11.35272497 42.4331749 10.1875 38.9375 C8.31696603 39.06784494 8.31696603 39.06784494 6.1875 39.9375 C5.259375 41.2059375 5.259375 41.2059375 4.3125 42.5 C3.260625 43.7065625 3.260625 43.7065625 2.1875 44.9375 C-0.9453125 45.08984375 -0.9453125 45.08984375 -3.8125 44.9375 C-3.98265625 43.68453125 -4.1528125 42.4315625 -4.328125 41.140625 C-4.57204788 39.48945476 -4.8168877 37.83841979 -5.0625 36.1875 C-5.17207031 35.3625 -5.28164063 34.5375 -5.39453125 33.6875 C-5.95451595 30.03286303 -6.4260715 27.49799539 -8.546875 24.421875 C-13.46275835 21.20112384 -19.31003493 21.78103476 -25 21.8125 C-25.71091797 21.80863281 -26.42183594 21.80476563 -27.15429688 21.80078125 C-30.30811884 21.80671506 -32.79919395 21.93306465 -35.8125 22.9375 Z " fill="#000000" transform="translate(64.8125,6.0625)"/>
<path d="M0 0 C5.28 0 10.56 0 16 0 C16 2.64 16 5.28 16 8 C10.72 8 5.44 8 0 8 C0 5.36 0 2.72 0 0 Z " fill="#000000" transform="translate(40,40)"/>
<path d="M0 0 C3.96 0 7.92 0 12 0 C12 1.32 12 2.64 12 4 C8.04 4 4.08 4 0 4 C0 2.68 0 1.36 0 0 Z " fill="#000000" transform="translate(30,52)"/>
</svg>
